<svg id="visual" viewBox="0 0 900 600" width="900" height="600" xmlns="http://www.w3.org/2000/svg" xmlns:xlink="http://www.w3.org/1999/xlink" version="1.1"><path d="M0 19L11.5 19C23 19 46 19 69 22C92 25 115 31 138.2 38C161.3 45 184.7 53 207.8 52C231 51 254 41 277 43C300 45 323 59 346 58C369 57 392 41 415.2 32C438.3 23 461.7 21 484.8 20C508 19 531 19 554 28C577 37 600 55 623 58C646 61 669 49 692.2 43C715.3 37 738.7 37 761.8 34C785 31 808 25 831 24C854 23 877 27 888.5 29L900 31L900 0L888.5 0C877 0 854 0 831 0C808 0 785 0 761.8 0C738.7 0 715.3 0 692.2 0C669 0 646 0 623 0C600 0 577 0 554 0C531 0 508 0 484.8 0C461.7 0 438.3 0 415.2 0C392 0 369 0 346 0C323 0 300 0 277 0C254 0 231 0 207.8 0C184.7 0 161.3 0 138.2 0C115 0 92 0 69 0C46 0 23 0 11.5 0L0 0Z" fill="#340068"></path><path d="M0 151L11.5 148C23 145 46 139 69 132C92 125 115 117 138.2 115C161.3 113 184.7 117 207.8 113C231 109 254 97 277 101C300 105 323 125 346 133C369 141 392 137 415.2 130C438.3 123 461.7 113 484.8 103C508 93 531 83 554 100C577 117 600 161 623 162C646 163 669 121 692.2 115C715.3 109 738.7 139 761.8 143C785 147 808 125 831 119C854 113 877 123 888.5 128L900 133L900 29L888.5 27C877 25 854 21 831 22C808 23 785 29 761.8 32C738.7 35 715.3 35 692.2 41C669 47 646 59 623 56C600 53 577 35 554 26C531 17 508 17 484.8 18C461.7 19 438.3 21 415.2 30C392 39 369 55 346 56C323 57 300 43 277 41C254 39 231 49 207.8 50C184.7 51 161.3 43 138.2 36C115 29 92 23 69 20C46 17 23 17 11.5 17L0 17Z" fill="#8e0067"></path><path d="M0 253L11.5 241C23 229 46 205 69 201C92 197 115 213 138.2 224C161.3 235 184.7 241 207.8 247C231 253 254 259 277 249C300 239 323 213 346 201C369 189 392 191 415.2 211C438.3 231 461.7 269 484.8 290C508 311 531 315 554 311C577 307 600 295 623 268C646 241 669 199 692.2 211C715.3 223 738.7 289 761.8 313C785 337 808 319 831 291C854 263 877 225 888.5 206L900 187L900 131L888.5 126C877 121 854 111 831 117C808 123 785 145 761.8 141C738.7 137 715.3 107 692.2 113C669 119 646 161 623 160C600 159 577 115 554 98C531 81 508 91 484.8 101C461.7 111 438.3 121 415.2 128C392 135 369 139 346 131C323 123 300 103 277 99C254 95 231 107 207.8 111C184.7 115 161.3 111 138.2 113C115 115 92 123 69 130C46 137 23 143 11.5 146L0 149Z" fill="#cf0057"></path><path d="M0 283L11.5 281C23 279 46 275 69 273C92 271 115 271 138.2 271C161.3 271 184.7 271 207.8 274C231 277 254 283 277 280C300 277 323 265 346 259C369 253 392 253 415.2 275C438.3 297 461.7 341 484.8 363C508 385 531 385 554 374C577 363 600 341 623 312C646 283 669 247 692.2 259C715.3 271 738.7 331 761.8 361C785 391 808 391 831 362C854 333 877 275 888.5 246L900 217L900 185L888.5 204C877 223 854 261 831 289C808 317 785 335 761.8 311C738.7 287 715.3 221 692.2 209C669 197 646 239 623 266C600 293 577 305 554 309C531 313 508 309 484.8 288C461.7 267 438.3 229 415.2 209C392 189 369 187 346 199C323 211 300 237 277 247C254 257 231 251 207.8 245C184.7 239 161.3 233 138.2 222C115 211 92 195 69 199C46 203 23 227 11.5 239L0 251Z" fill="#f4253a"></path><path d="M0 403L11.5 386C23 369 46 335 69 325C92 315 115 329 138.2 339C161.3 349 184.7 355 207.8 363C231 371 254 381 277 378C300 375 323 359 346 341C369 323 392 303 415.2 329C438.3 355 461.7 427 484.8 450C508 473 531 447 554 423C577 399 600 377 623 358C646 339 669 323 692.2 338C715.3 353 738.7 399 761.8 424C785 449 808 453 831 431C854 409 877 361 888.5 337L900 313L900 215L888.5 244C877 273 854 331 831 360C808 389 785 389 761.8 359C738.7 329 715.3 269 692.2 257C669 245 646 281 623 310C600 339 577 361 554 372C531 383 508 383 484.8 361C461.7 339 438.3 295 415.2 273C392 251 369 251 346 257C323 263 300 275 277 278C254 281 231 275 207.8 272C184.7 269 161.3 269 138.2 269C115 269 92 269 69 271C46 273 23 277 11.5 279L0 281Z" fill="#f4253a"></path><path d="M0 427L11.5 417C23 407 46 387 69 378C92 369 115 371 138.2 374C161.3 377 184.7 381 207.8 391C231 401 254 417 277 415C300 413 323 393 346 377C369 361 392 349 415.2 374C438.3 399 461.7 461 484.8 482C508 503 531 483 554 459C577 435 600 407 623 386C646 365 669 351 692.2 367C715.3 383 738.7 429 761.8 455C785 481 808 487 831 469C854 451 877 409 888.5 388L900 367L900 311L888.5 335C877 359 854 407 831 429C808 451 785 447 761.8 422C738.7 397 715.3 351 692.2 336C669 321 646 337 623 356C600 375 577 397 554 421C531 445 508 471 484.8 448C461.7 425 438.3 353 415.2 327C392 301 369 321 346 339C323 357 300 373 277 376C254 379 231 369 207.8 361C184.7 353 161.3 347 138.2 337C115 327 92 313 69 323C46 333 23 367 11.5 384L0 401Z" fill="#cf0057"></path><path d="M0 583L11.5 583C23 583 46 583 69 578C92 573 115 563 138.2 561C161.3 559 184.7 565 207.8 566C231 567 254 563 277 562C300 561 323 563 346 563C369 563 392 561 415.2 564C438.3 567 461.7 575 484.8 572C508 569 531 555 554 551C577 547 600 553 623 558C646 563 669 567 692.2 569C715.3 571 738.7 571 761.8 573C785 575 808 579 831 578C854 577 877 571 888.5 568L900 565L900 365L888.5 386C877 407 854 449 831 467C808 485 785 479 761.8 453C738.7 427 715.3 381 692.2 365C669 349 646 363 623 384C600 405 577 433 554 457C531 481 508 501 484.8 480C461.7 459 438.3 397 415.2 372C392 347 369 359 346 375C323 391 300 411 277 413C254 415 231 399 207.8 389C184.7 379 161.3 375 138.2 372C115 369 92 367 69 376C46 385 23 405 11.5 415L0 425Z" fill="#8e0067"></path><path d="M0 601L11.5 601C23 601 46 601 69 601C92 601 115 601 138.2 601C161.3 601 184.7 601 207.8 601C231 601 254 601 277 601C300 601 323 601 346 601C369 601 392 601 415.2 601C438.3 601 461.7 601 484.8 601C508 601 531 601 554 601C577 601 600 601 623 601C646 601 669 601 692.2 601C715.3 601 738.7 601 761.8 601C785 601 808 601 831 601C854 601 877 601 888.5 601L900 601L900 563L888.5 566C877 569 854 575 831 576C808 577 785 573 761.8 571C738.7 569 715.3 569 692.2 567C669 565 646 561 623 556C600 551 577 545 554 549C531 553 508 567 484.8 570C461.7 573 438.3 565 415.2 562C392 559 369 561 346 561C323 561 300 559 277 560C254 561 231 565 207.8 564C184.7 563 161.3 557 138.2 559C115 561 92 571 69 576C46 581 23 581 11.5 581L0 581Z" fill="#340068"></path></svg>